<?xml version="1.0" encoding="UTF-8" standalone="no"?>
<!-- Created with Inkscape (http://www.inkscape.org/) -->

<svg
   width="210mm"
   height="175mm"
   viewBox="0 0 210 175"
   version="1.1"
   id="svg1"
   xml:space="preserve"
   inkscape:version="1.3 (0e150ed6c4, 2023-07-21)"
   sodipodi:docname="Aerostacks-logo.svg"
   inkscape:export-filename="LogoSharp.png"
   inkscape:export-xdpi="300"
   inkscape:export-ydpi="300"
   xmlns:inkscape="http://www.inkscape.org/namespaces/inkscape"
   xmlns:sodipodi="http://sodipodi.sourceforge.net/DTD/sodipodi-0.dtd"
   xmlns="http://www.w3.org/2000/svg"
   xmlns:svg="http://www.w3.org/2000/svg"><sodipodi:namedview
     id="namedview1"
     pagecolor="#d7d7d7"
     bordercolor="#000000"
     borderopacity="0.25"
     inkscape:showpageshadow="false"
     inkscape:pageopacity="0.0"
     inkscape:pagecheckerboard="0"
     inkscape:deskcolor="#d1d1d1"
     inkscape:document-units="mm"
     showgrid="true"
     inkscape:zoom="1.0091783"
     inkscape:cx="314.61239"
     inkscape:cy="381.99394"
     inkscape:window-width="2400"
     inkscape:window-height="1261"
     inkscape:window-x="2391"
     inkscape:window-y="-9"
     inkscape:window-maximized="1"
     inkscape:current-layer="layer7"
     inkscape:export-bgcolor="#ffffff00"
     showborder="false"
     borderlayer="false"
     shape-rendering="auto"><inkscape:grid
       id="grid1"
       units="mm"
       originx="0"
       originy="0"
       spacingx="0.99999998"
       spacingy="1"
       empcolor="#0099e5"
       empopacity="0.30196078"
       color="#0099e5"
       opacity="0.14901961"
       empspacing="5"
       dotted="false"
       gridanglex="30"
       gridanglez="30"
       visible="true"
       enabled="true" /></sodipodi:namedview><defs
     id="defs1"><rect
       x="755.90552"
       y="113.38582"
       width="1965.3544"
       height="434.64566"
       id="rect26" /><rect
       x="774.80316"
       y="75.590546"
       width="2362.2048"
       height="604.72443"
       id="rect1" /><rect
       x="75.590553"
       y="661.14484"
       width="642.51971"
       height="38.067741"
       id="rect38" /><rect
       x="75.590553"
       y="585.82678"
       width="642.51971"
       height="151.18111"
       id="rect37" /><rect
       x="75.590553"
       y="587.60571"
       width="236.22047"
       height="81.317284"
       id="rect36" /><rect
       x="75.590553"
       y="589.72705"
       width="370.39371"
       height="78.488853"
       id="rect35" /><rect
       x="75.590553"
       y="567.80676"
       width="642.51971"
       height="93.610558"
       id="rect34" /><rect
       x="75.590553"
       y="566.92914"
       width="642.51971"
       height="56.692913"
       id="rect33" /><rect
       x="75.590553"
       y="566.92914"
       width="642.51971"
       height="75.590546"
       id="rect32" /><rect
       x="132.28346"
       y="571"
       width="7.3578445e-07"
       height="14.826758"
       id="rect31" /><rect
       x="56.692917"
       y="566.92914"
       width="680.315"
       height="37.795277"
       id="rect30" /><marker
       id="DistanceX"
       orient="auto"
       refX="0"
       refY="0"
       style="overflow:visible"><path
         d="M 3,-3 -3,3 M 0,-5 V 5"
         style="stroke:#000000;stroke-width:0.5"
         id="path1-9" /></marker><pattern
       id="Hatch"
       patternUnits="userSpaceOnUse"
       width="8"
       height="8"
       x="0"
       y="0"><path
         d="M8 4 l-4,4"
         stroke="#000000"
         stroke-width="0.25"
         linecap="square"
         id="path2-4" /><path
         d="M6 2 l-4,4"
         stroke="#000000"
         stroke-width="0.25"
         linecap="square"
         id="path3-1" /><path
         d="M4 0 l-4,4"
         stroke="#000000"
         stroke-width="0.25"
         linecap="square"
         id="path4-2" /></pattern><symbol
       id="*Model_Space" /><symbol
       id="*Paper_Space" /><symbol
       id="*Paper_Space0" /><marker
       id="DistanceX-3"
       orient="auto"
       refX="0"
       refY="0"
       style="overflow:visible"><path
         d="M 3,-3 -3,3 M 0,-5 V 5"
         style="stroke:#000000;stroke-width:0.5"
         id="path1-3" /></marker><pattern
       id="Hatch-7"
       patternUnits="userSpaceOnUse"
       width="8"
       height="8"
       x="0"
       y="0"><path
         d="M8 4 l-4,4"
         stroke="#000000"
         stroke-width="0.25"
         linecap="square"
         id="path2-3" /><path
         d="M6 2 l-4,4"
         stroke="#000000"
         stroke-width="0.25"
         linecap="square"
         id="path3-66" /><path
         d="M4 0 l-4,4"
         stroke="#000000"
         stroke-width="0.25"
         linecap="square"
         id="path4-8" /></pattern><symbol
       id="*Model_Space-1" /><symbol
       id="*Paper_Space-0" /><symbol
       id="*Paper_Space0-2" /></defs><g
     inkscape:groupmode="layer"
     id="layer2"
     inkscape:label="Wings"
     style="display:inline"><path
       style="fill:#2c5aa0;fill-opacity:1;stroke-width:2;stroke-linecap:round;stroke-linejoin:round"
       d="m 122,89.999998 c 0,0 29,-4 44,-5.999998 15,-2.000002 24,-19.000004 24,-19.000004 l -63,16.000002 z"
       id="path1"
       inkscape:export-filename="WebLogo.webp"
       inkscape:export-xdpi="21.06706"
       inkscape:export-ydpi="21.06706" /><path
       style="fill:#2c5aa0;fill-opacity:1;stroke-width:2;stroke-linecap:round;stroke-linejoin:round"
       d="m 118,98.999997 c 0,0 23,1.000003 36,1.000003 13,0 21,-15.000004 21,-15.000004 l -53,7.000001 z"
       id="path3" /><path
       style="fill:#2c5aa0;fill-opacity:1;stroke-width:2;stroke-linecap:round;stroke-linejoin:round"
       d="m 117,101 15,9 c 0,0 -2,1.99999 10,1.99999 12,0 19,-8.99999 19,-8.99999 z"
       id="path4" /><path
       style="display:inline;fill:#2c5aa0;fill-opacity:1;stroke-width:2;stroke-linecap:round;stroke-linejoin:round"
       d="m 88.000001,89.999998 c 0,0 -29,-4 -44,-6 -15,-2 -24,-19.000001 -24,-19.000001 l 63,16.000001 z"
       id="path1-5" /><path
       style="display:inline;fill:#2c5aa0;fill-opacity:1;stroke-width:2;stroke-linecap:round;stroke-linejoin:round"
       d="m 92.000001,99 c 0,0 -23,1 -36,1 -13,0 -21,-15.000002 -21,-15.000002 l 53,7 z"
       id="path3-6" /><path
       style="display:inline;fill:#2c5aa0;fill-opacity:1;stroke-width:2;stroke-linecap:round;stroke-linejoin:round"
       d="m 93.000001,101 -15,9 c 0,0 2,1.99999 -10,1.99999 -12,0 -19,-8.99999 -19,-8.99999 z"
       id="path4-5" /></g><g
     inkscape:groupmode="layer"
     id="layer7"
     inkscape:label="Rounded Icons"
     style="display:inline"><path
       id="path167"
       style="display:inline;fill:#000000;stroke:none;stroke-width:0.756014;stroke-linecap:round;stroke-linejoin:round;stroke-dasharray:none"
       d="m 124.87658,69.660972 a 3.77999,3.77999 0 0 0 -3.37159,2.088184 h -0.0114 l -33.889636,67.781144 0.0038,0.008 a 3.7799833,3.7799833 0 0 0 -0.402426,1.68191 3.7799833,3.7799833 0 0 0 3.779841,3.77984 h 11.550491 l 0.24041,-0.14666 a 3.5162232,3.5162232 0 0 0 3.10593,-1.8948 l 0.0151,-0.0114 15.59599,-31.19198 h 0.008 a 3.7782943,3.7782943 0 0 1 3.37156,-2.08818 3.7782943,3.7782943 0 0 1 3.37938,2.08818 h 0.004 l 15.57645,31.1529 0.0114,0.008 a 3.780029,3.780029 0 0 0 3.36959,2.08233 h 11.55048 a 3.7800306,3.7800306 0 0 0 3.77985,-3.77985 3.7800306,3.7800306 0 0 0 -0.40239,-1.68186 l 0.004,-0.008 -33.88959,-67.779223 h -0.008 a 3.77999,3.77999 0 0 0 -3.37353,-2.09015 z"
       transform="translate(0.12614)" /><path
       id="path166"
       style="display:inline;fill:#000000;fill-opacity:1;stroke:none;stroke-width:0.756014;stroke-linecap:round;stroke-linejoin:round;stroke-dasharray:none"
       d="m 104.87567,29.653301 a 3.7826457,3.7826457 0 0 0 -3.37548,2.092079 h -0.008 l -53.892467,107.78492 0.0038,0.008 a 3.7799833,3.7799833 0 0 0 -0.402387,1.68191 3.7799833,3.7799833 0 0 0 3.779841,3.77984 h 21.551905 a 3.7799824,3.7799824 0 0 0 3.369627,-2.08233 l 0.01134,-0.008 43.115521,-86.231099 v -0.01512 a 3.7808741,3.7808741 0 0 0 0.40046,-1.677972 3.7808741,3.7808741 0 0 0 -0.40046,-1.677972 v -0.01134 L 108.32907,31.89473 a 3.7826457,3.7826457 0 0 0 -3.4534,-2.242563 z"
       transform="translate(0.12614)" /></g></svg>
