<?xml version="1.0" encoding="utf-8"?>
<!-- Generator: Adobe Illustrator 27.3.1, SVG Export Plug-In . SVG Version: 6.00 Build 0)  -->
<svg version="1.1"
	 id="svg3208" xmlns:cc="http://creativecommons.org/ns#" xmlns:sodipodi="http://sodipodi.sourceforge.net/DTD/sodipodi-0.dtd" xmlns:svg="http://www.w3.org/2000/svg" xmlns:inkscape="http://www.inkscape.org/namespaces/inkscape" xmlns:dc="http://purl.org/dc/elements/1.1/" xmlns:rdf="http://www.w3.org/1999/02/22-rdf-syntax-ns#"
	 xmlns="http://www.w3.org/2000/svg" xmlns:xlink="http://www.w3.org/1999/xlink" x="0px" y="0px" viewBox="0 0 744.1 212.6"
	 style="enable-background:new 0 0 744.1 212.6;" xml:space="preserve">
<style type="text/css">
	.st0{clip-path:url(#SVGID_00000137854183466114575970000001533523019676841909_);}
	.st1{fill:#0AAFF8;}
	.st2{fill:#D8B129;}
	.st3{clip-path:url(#SVGID_00000019637068694473312150000008400233052901176477_);}
</style>
<sodipodi:namedview  bordercolor="#666666" borderlayer="true" borderopacity="1.0" id="base" inkscape:current-layer="layer1" inkscape:cx="309.89955" inkscape:cy="112.70853" inkscape:document-units="px" inkscape:pageopacity="0.0" inkscape:pageshadow="2" inkscape:window-height="716" inkscape:window-maximized="0" inkscape:window-width="1363" inkscape:window-x="3" inkscape:window-y="24" inkscape:zoom="0.98994949" pagecolor="#ffffff" showgrid="false" units="cm">
	</sodipodi:namedview>
<g id="layer1" transform="translate(0,-839.76234)" inkscape:groupmode="layer" inkscape:label="Layer 1">
	<g id="g48" transform="matrix(1.8921847,0,0,-1.8921847,-607.60691,1808.9659)">
		<g>
			<g>
				<defs>
					<rect id="SVGID_1_" x="-1086.2" y="-768" width="3014.3" height="2131.4"/>
				</defs>
				<clipPath id="SVGID_00000139290962329032295540000008170655423456005006_">
					<use xlink:href="#SVGID_1_"  style="overflow:visible;"/>
				</clipPath>
				<g id="g50" style="clip-path:url(#SVGID_00000139290962329032295540000008170655423456005006_);">
					<g id="g56" transform="translate(374.1481,458.9495)">
						<path id="path58" inkscape:connector-curvature="0" class="st1" d="M0,0h-18v-7.3h8.3v-9.1c-0.3-0.3-0.6-0.6-1.1-0.8
							c-0.5-0.3-1.1-0.5-1.7-0.7c-0.6-0.2-1.3-0.4-2.1-0.5c-0.7-0.1-1.5-0.2-2.2-0.2c-3.2,0-5.5,1.3-7.1,3.8S-26.3-8.7-26.3-4v6.9
							c0,2.4,0.2,4.5,0.7,6.3s1.1,3.3,1.9,4.5s1.7,2.1,2.8,2.8c1.1,0.6,2.2,1,3.5,1c2.6,0,4.5-0.7,5.7-2s2-3.2,2.3-5.8H0
							c-0.3,2.4-0.8,4.6-1.6,6.5s-2,3.6-3.4,4.9c-1.5,1.3-3.2,2.4-5.3,3.1s-4.6,1.1-7.4,1.1c-2.6,0-5-0.5-7.2-1.5s-4.2-2.5-5.8-4.4
							c-1.6-1.9-2.9-4.3-3.9-7.1C-35.5,9.5-36,6.4-36,2.8V-4c0-3.5,0.4-6.7,1.3-9.5s2.1-5.1,3.8-7c1.6-1.9,3.6-3.4,5.9-4.4
							s4.9-1.5,7.7-1.5c2.1,0,4.1,0.2,5.9,0.6s3.5,0.9,5,1.5s2.8,1.3,3.9,2.1c1.1,0.8,1.9,1.6,2.6,2.3L0,0z"/>
					</g>
				</g>
			</g>
		</g>
	</g>
	<g id="g60" transform="matrix(1.8921847,0,0,-1.8921847,122.46455,974.64358)">
		<path id="path62" inkscape:connector-curvature="0" class="st2" d="M0,0l10.6,10.8L21.2,0l5.7,5.7L16.2,16.6l10.7,10.9l-5.7,5.7
			L10.6,22.3L0,33.1l-5.7-5.7L5,16.6L-5.7,5.7L0,0z"/>
	</g>
	<g id="g64" transform="matrix(1.8921847,0,0,-1.8921847,256.75798,989.21436)">
		<path id="path66" inkscape:connector-curvature="0" class="st1" d="M0,0l-16.2,50.3H-25L-41.5,0h10.2l3,10.5h15.1l3-10.5H0z
			 M-15.5,18.8h-10.4l5.3,18.5L-15.5,18.8z"/>
	</g>
	<path id="path68" inkscape:connector-curvature="0" class="st2" d="M326.4,922.2h-61.9v14.9h61.9V922.2z"/>
	<path id="path70" inkscape:connector-curvature="0" class="st2" d="M326.4,950.5h-61.9v14.8h61.9V950.5z"/>
	<g id="g72" transform="matrix(1.8921847,0,0,-1.8921847,342.84086,893.97615)">
		<path id="path74" inkscape:connector-curvature="0" class="st1" d="M0,0v-50.3h8.9v14.9L8.5-12.8l5.9-20.9h4.8l6.6,21.8l-0.4-23.5
			v-14.9h8.9V0h-12l-5.4-18.9L12.1,0H0z"/>
	</g>
	<g id="g76" transform="matrix(1.8921847,0,0,-1.8921847,462.73857,908.26781)">
		<path id="path78" inkscape:connector-curvature="0" class="st2" d="M0,0h-9.2v-13.6h-12.7v-8.8h12.7v-14.2H0v14.2h12.7v8.8L0-13.6
			V0z"/>
	</g>
	<g id="g80" transform="matrix(1.8921847,0,0,-1.8921847,-607.60691,1808.9659)">
		<g>
			<g>
				<defs>
					<rect id="SVGID_00000117647251356079538250000013103222517374082749_" x="-1086.2" y="-768" width="3014.3" height="2131.4"/>
				</defs>
				<clipPath id="SVGID_00000125577795967125334800000016150821757108498057_">
					<use xlink:href="#SVGID_00000117647251356079538250000013103222517374082749_"  style="overflow:visible;"/>
				</clipPath>
				<g id="g82" style="clip-path:url(#SVGID_00000125577795967125334800000016150821757108498057_);">
					<g id="g88" transform="translate(611.6257,483.1131)">
						<path id="path90" inkscape:connector-curvature="0" class="st1" d="M0,0c-1.1,0.4-2.2,0.7-3.4,0.9L6.1,9v0.7h-8.2l-5.1-4.4
							l-5,4.4h-8.2V9l9.5-8.1c-1.5-0.3-2.9-0.7-4.2-1.3C-17.4-1.5-19.3-3-21-5s-2.9-4.4-3.7-7.1C-25.6-15-26-18-26-21.4v-6.8
							c0-3.3,0.4-6.4,1.2-9.1c0.8-2.8,2-5.1,3.6-7.1s3.5-3.5,5.8-4.6s4.9-1.6,7.9-1.6c2.6,0,5,0.4,7.2,1.2s4,1.9,5.6,3.3
							S8.2-43,9.1-41c0.9,2,1.5,4.3,1.6,6.8H1c-0.2-3-1-5.2-2.5-6.5s-3.5-2-6-2c-3,0-5.2,1.2-6.6,3.6c-1.4,2.4-2.1,6-2.1,11v6.8
							c0,2.3,0.2,4.4,0.5,6.2s0.9,3.3,1.6,4.6c0.7,1.2,1.6,2.2,2.7,2.8s2.4,1,3.9,1c1.4,0,2.7-0.2,3.7-0.6S-1.9-8.2-1.2-9
							c0.7-0.7,1.2-1.7,1.6-2.8c0.4-1.2,0.6-2.5,0.7-4h9.7c-0.2,2.6-0.8,5-1.7,7.1C8.2-6.6,7-4.8,5.5-3.4S2.2-0.8,0,0"/>
					</g>
				</g>
			</g>
		</g>
	</g>
	<path id="path92" inkscape:connector-curvature="0" class="st2" d="M633.3,935h-56.2v15.4h56.2V935z"/>
	<g id="g94" transform="matrix(1.8921847,0,0,-1.8921847,711.85663,989.21436)">
		<path id="path96" inkscape:connector-curvature="0" class="st1" d="M0,0l-16.2,50.3H-25L-41.5,0h10.2l3,10.5h15.1l3-10.5H0z
			 M-15.5,18.8h-10.4l5.3,18.5C-20.6,37.3-15.5,18.8-15.5,18.8z"/>
	</g>
</g>
</svg>
